<mxfile host="app.diagrams.net" modified="2022-08-27T10:20:29.608Z" agent="5.0 (Windows NT 10.0; Win64; x64) AppleWebKit/537.36 (KHTML, like Gecko) Chrome/104.0.0.0 Safari/537.36" etag="eePDNJVrGnMDhSA0SHD4" version="20.2.7" type="github">
  <diagram id="Rsr1v_tStUaQ5azJq0qS" name="第 1 页">
    <mxGraphModel dx="1422" dy="794" grid="1" gridSize="10" guides="1" tooltips="1" connect="1" arrows="1" fold="1" page="1" pageScale="1" pageWidth="827" pageHeight="1169" math="0" shadow="0">
      <root>
        <mxCell id="0" />
        <mxCell id="1" parent="0" />
        <mxCell id="PHLJTVfLrtnAu4Q4XUuZ-1" value="Module" style="swimlane;fontStyle=0;childLayout=stackLayout;horizontal=1;startSize=26;fillColor=none;horizontalStack=0;resizeParent=1;resizeParentMax=0;resizeLast=0;collapsible=1;marginBottom=0;" vertex="1" parent="1">
          <mxGeometry x="110" y="150" width="410" height="78" as="geometry">
            <mxRectangle x="290" y="200" width="100" height="30" as="alternateBounds" />
          </mxGeometry>
        </mxCell>
        <mxCell id="PHLJTVfLrtnAu4Q4XUuZ-2" value="- _dependencyMap: WeakMap&lt;Dependency, ModuleGraphConnection&gt;" style="text;strokeColor=none;fillColor=none;align=left;verticalAlign=top;spacingLeft=4;spacingRight=4;overflow=hidden;rotatable=0;points=[[0,0.5],[1,0.5]];portConstraint=eastwest;" vertex="1" parent="PHLJTVfLrtnAu4Q4XUuZ-1">
          <mxGeometry y="26" width="410" height="26" as="geometry" />
        </mxCell>
        <mxCell id="PHLJTVfLrtnAu4Q4XUuZ-3" value="- _moduleMap: Map&lt;Module, ModuleGraphModule&gt;" style="text;strokeColor=none;fillColor=none;align=left;verticalAlign=top;spacingLeft=4;spacingRight=4;overflow=hidden;rotatable=0;points=[[0,0.5],[1,0.5]];portConstraint=eastwest;" vertex="1" parent="PHLJTVfLrtnAu4Q4XUuZ-1">
          <mxGeometry y="52" width="410" height="26" as="geometry" />
        </mxCell>
        <mxCell id="PHLJTVfLrtnAu4Q4XUuZ-6" value="ModuleGraphModule" style="swimlane;fontStyle=0;childLayout=stackLayout;horizontal=1;startSize=26;fillColor=none;horizontalStack=0;resizeParent=1;resizeParentMax=0;resizeLast=0;collapsible=1;marginBottom=0;" vertex="1" parent="1">
          <mxGeometry x="110" y="350" width="510" height="106" as="geometry" />
        </mxCell>
        <mxCell id="PHLJTVfLrtnAu4Q4XUuZ-7" value="+ incomingConnections: SortableSet&lt;ModuleGraphConnection&gt;" style="text;strokeColor=none;fillColor=none;align=left;verticalAlign=top;spacingLeft=4;spacingRight=4;overflow=hidden;rotatable=0;points=[[0,0.5],[1,0.5]];portConstraint=eastwest;" vertex="1" parent="PHLJTVfLrtnAu4Q4XUuZ-6">
          <mxGeometry y="26" width="510" height="26" as="geometry" />
        </mxCell>
        <mxCell id="PHLJTVfLrtnAu4Q4XUuZ-9" value="+ outgoingConnections?: SortableSet&lt;ModuleGraphConnection&gt;" style="text;strokeColor=none;fillColor=none;align=left;verticalAlign=top;spacingLeft=4;spacingRight=4;overflow=hidden;rotatable=0;points=[[0,0.5],[1,0.5]];portConstraint=eastwest;" vertex="1" parent="PHLJTVfLrtnAu4Q4XUuZ-6">
          <mxGeometry y="52" width="510" height="28" as="geometry" />
        </mxCell>
        <mxCell id="PHLJTVfLrtnAu4Q4XUuZ-10" value="+ exports: ExportsInfo" style="text;strokeColor=none;fillColor=none;align=left;verticalAlign=top;spacingLeft=4;spacingRight=4;overflow=hidden;rotatable=0;points=[[0,0.5],[1,0.5]];portConstraint=eastwest;" vertex="1" parent="PHLJTVfLrtnAu4Q4XUuZ-6">
          <mxGeometry y="80" width="510" height="26" as="geometry" />
        </mxCell>
      </root>
    </mxGraphModel>
  </diagram>
</mxfile>
